<svg width="198" height="57" viewBox="0 0 198 57" fill="none" xmlns="http://www.w3.org/2000/svg">
<g clip-path="url(#clip0)">
<path d="M70.6482 10.6202C67.7492 10.6202 65.3854 11.4692 63.646 13.2118C61.9065 14.9544 61.0591 17.2331 61.0591 20.1374V22.5056H56.8666V28.1355H61.0591V45.6062H67.5262V28.1355H72.8783V22.5056H67.5262V19.9588C67.5262 17.7693 69.1318 16.2948 71.4064 16.2948C71.8971 16.2948 72.3877 16.3395 72.923 16.3842V10.7543C72.2538 10.6649 71.4956 10.6202 70.6482 10.6202Z" fill="#940EC8"/>
<path d="M81.4778 10.8883H74.9661V45.6062H81.4778V10.8883Z" fill="#940EC8"/>
<path d="M89.3697 11.0224C86.1139 10.8437 84.1068 15.4906 86.6044 17.7246C88.0762 19.1992 90.6631 19.1992 92.1349 17.7246C92.8932 16.965 93.2946 16.0267 93.2946 14.9544C93.2946 12.7649 91.5551 11.0224 89.3697 11.0224ZM92.6256 22.5057H86.1139V45.6062H92.6256V22.5057Z" fill="#940EC8"/>
<path d="M107.118 22.0588C103.862 22.0588 101.186 23.1759 99.0901 25.3652C97.0385 27.5547 96.0127 30.459 96.0127 34.0782C96.0127 37.6974 97.0385 40.6018 99.0901 42.7911C101.186 44.9805 103.862 46.0976 107.118 46.0976C110.017 46.0976 112.158 45.2933 113.63 43.6401V57H120.097V22.5056H113.987V24.9185C112.56 22.9971 110.285 22.0588 107.118 22.0588ZM108.189 27.644C111.445 27.644 113.63 29.9228 113.63 33.542V34.6144C113.63 38.2337 111.445 40.5124 108.189 40.5124C104.844 40.5124 102.614 38.1443 102.614 34.0782C102.614 30.0122 104.844 27.644 108.189 27.644Z" fill="#940EC8"/>
<path d="M137.722 22.0588C134.599 22.0588 132.324 22.9971 130.897 24.9185V22.5056H124.742V57H131.255V43.6401C132.726 45.2933 134.912 46.0976 137.722 46.0976C141.022 46.0976 143.698 44.9805 145.75 42.7911C147.846 40.6018 148.871 37.6974 148.871 34.0782C148.871 30.459 147.846 27.5547 145.75 25.3652C143.698 23.1759 141.022 22.0588 137.722 22.0588ZM136.695 27.644C140.041 27.644 142.271 30.0122 142.271 34.0782C142.271 38.1443 140.041 40.5124 136.695 40.5124C133.439 40.5124 131.255 38.2337 131.255 34.6144V33.542C131.255 29.9228 133.439 27.644 136.695 27.644Z" fill="#940EC8"/>
<path d="M161.232 22.0588C158.423 22.0588 156.104 22.9077 154.275 24.6056C152.491 26.2589 151.599 28.1802 151.599 30.3249L158.111 30.593C158.111 28.9398 159.226 27.5547 161.322 27.5547C163.329 27.5547 164.31 28.7611 164.31 31.1292V32.0228L160.207 32.2463C154.052 32.5144 150.975 34.8378 150.975 39.2613C150.975 43.6848 153.873 46.0976 158.646 46.0976C161.055 46.0976 163.017 45.2933 164.533 43.7295V45.6062H170.822V31.3526C170.822 25.2758 167.477 22.0588 161.232 22.0588ZM164.31 37.2953C164.31 39.6634 162.615 41.0485 160.163 41.0485C158.378 41.0485 157.486 40.3337 157.486 38.9486C157.486 37.4294 158.601 36.6251 160.832 36.5357L164.31 36.3123V37.2953Z" fill="#940EC8"/>
<path d="M196.947 22.5056H189.722L184.459 36.2676L179.151 22.5056H171.971L180.98 43.5507L175.092 57H182.184L196.947 22.5056Z" fill="#940EC8"/>
<path fill-rule="evenodd" clip-rule="evenodd" d="M0 4.52178C0 1.41793 2.3587 -0.546164 5.26869 0.134932L36.9211 7.54331C39.8309 8.22437 42.1898 10.4404 42.1898 12.4984V43.7793C42.1898 45.8348 39.8311 48.0533 36.9211 48.7344L5.26869 56.1427C2.35887 56.8239 0 54.8634 0 51.7559V4.52178ZM8.96534 15.9974C8.96534 13.4912 11.0201 11.7556 13.5498 12.1199L27.3076 14.1015C29.8396 14.4661 31.8921 16.3771 31.8921 18.3709C31.8921 20.364 29.8373 21.8504 27.3076 21.6909L13.5498 20.824C11.0179 20.6644 8.96534 18.504 8.96534 15.9974ZM8.72134 28.1388C8.72134 25.5448 10.8483 23.5279 13.4667 23.634L27.7076 24.2109C30.3285 24.3171 32.4531 26.0752 32.4531 28.1388C32.4531 30.202 30.3262 31.9607 27.7076 32.0668L13.4667 32.6437C10.8459 32.7499 8.72134 30.7336 8.72134 28.1388ZM14.239 45.0763C17.1517 44.6305 19.5128 42.1452 19.5128 39.5251C19.5128 36.9049 17.1517 34.9296 14.239 35.1131C11.3265 35.2967 8.96534 37.782 8.96534 40.6644C8.96534 43.5467 11.3265 45.522 14.239 45.0763Z" fill="#940EC8"/>
</g>
<defs>
<clipPath id="clip0">
<rect width="198" height="57" fill="white"/>
</clipPath>
</defs>
</svg>
