<svg width="198" height="56" viewBox="0 0 198 56" fill="none" xmlns="http://www.w3.org/2000/svg">
<g clip-path="url(#clip0)">
<path d="M70.6482 10.4339C67.7492 10.4339 65.3854 11.268 63.6459 12.98C61.9065 14.692 61.0591 16.9308 61.0591 19.7841V22.1108H56.8666V27.6419H61.0591V44.806H67.5262V27.6419H72.8783V22.1108H67.5262V19.6086C67.5262 17.4575 69.1318 16.0089 71.4064 16.0089C71.8971 16.0089 72.3876 16.0528 72.9229 16.0967V10.5656C72.2538 10.4778 71.4956 10.4339 70.6482 10.4339Z" fill="white"/>
<path d="M81.4778 10.6973H74.9661V44.8061H81.4778V10.6973Z" fill="white"/>
<path d="M89.3697 10.829C86.1138 10.6534 84.1068 15.2188 86.6044 17.4137C88.0762 18.8624 90.6631 18.8624 92.1349 17.4137C92.8932 16.6674 93.2945 15.7455 93.2945 14.6921C93.2945 12.541 91.5551 10.829 89.3697 10.829ZM92.6255 22.1108H86.1138V44.8061H92.6255V22.1108Z" fill="white"/>
<path d="M107.118 21.6718C103.862 21.6718 101.186 22.7693 99.0901 24.9202C97.0386 27.0713 96.0127 29.9246 96.0127 33.4804C96.0127 37.036 97.0386 39.8895 99.0901 42.0404C101.186 44.1914 103.862 45.2889 107.118 45.2889C110.017 45.2889 112.158 44.4987 113.63 42.8745V56H120.097V22.1108H113.987V24.4813C112.56 22.5936 110.285 21.6718 107.118 21.6718ZM108.189 27.159C111.445 27.159 113.63 29.3979 113.63 32.9535V34.0071C113.63 37.5629 111.445 39.8017 108.189 39.8017C104.844 39.8017 102.614 37.4751 102.614 33.4804C102.614 29.4857 104.844 27.159 108.189 27.159Z" fill="white"/>
<path d="M137.722 21.6718C134.599 21.6718 132.324 22.5936 130.897 24.4813V22.1108H124.742V56H131.255V42.8745C132.726 44.4987 134.912 45.2889 137.722 45.2889C141.022 45.2889 143.698 44.1914 145.75 42.0404C147.846 39.8895 148.871 37.036 148.871 33.4804C148.871 29.9246 147.846 27.0713 145.75 24.9202C143.698 22.7693 141.022 21.6718 137.722 21.6718ZM136.695 27.159C140.041 27.159 142.271 29.4857 142.271 33.4804C142.271 37.4751 140.041 39.8017 136.695 39.8017C133.439 39.8017 131.255 37.5629 131.255 34.0071V32.9535C131.255 29.3979 133.439 27.159 136.695 27.159Z" fill="white"/>
<path d="M161.232 21.6718C158.423 21.6718 156.104 22.5058 154.275 24.174C152.491 25.7982 151.599 27.6858 151.599 29.7929L158.111 30.0563C158.111 28.4321 159.226 27.0713 161.322 27.0713C163.33 27.0713 164.31 28.2565 164.31 30.583V31.461L160.207 31.6805C154.052 31.944 150.975 34.2266 150.975 38.5725C150.975 42.9184 153.873 45.2889 158.646 45.2889C161.055 45.2889 163.017 44.4987 164.533 42.9623V44.806H170.822V30.8026C170.822 24.8324 167.477 21.6718 161.232 21.6718ZM164.31 36.641C164.31 38.9676 162.615 40.3284 160.163 40.3284C158.378 40.3284 157.486 39.626 157.486 38.2652C157.486 36.7727 158.601 35.9826 160.832 35.8948L164.31 35.6752V36.641Z" fill="white"/>
<path d="M196.947 22.1108H189.722L184.459 35.6313L179.151 22.1108H171.971L180.98 42.7867L175.092 56H182.184L196.947 22.1108Z" fill="white"/>
<path fill-rule="evenodd" clip-rule="evenodd" d="M0 4.44245C0 1.39306 2.3587 -0.536582 5.26869 0.132564L36.9211 7.41097C39.8309 8.08008 42.1898 10.2573 42.1898 12.2791V43.0112C42.1898 45.0307 39.8311 47.2102 36.9211 47.8794L5.26869 55.1578C2.35887 55.827 0 53.9009 0 50.8479V4.44245ZM8.96534 15.7167C8.96534 13.2545 11.0201 11.5493 13.5498 11.9073L27.3076 13.8541C29.8396 14.2124 31.8921 16.0898 31.8921 18.0486C31.8921 20.0068 29.8373 21.467 27.3076 21.3103L13.5498 20.4587C11.0179 20.3019 8.96534 18.1794 8.96534 15.7167ZM8.72134 27.6452C8.72134 25.0966 10.8483 23.1151 13.4667 23.2194L27.7076 23.7861C30.3285 23.8905 32.4531 25.6178 32.4531 27.6452C32.4531 29.6722 30.3262 31.4 27.7076 31.5043L13.4667 32.071C10.8459 32.1754 8.72134 30.1944 8.72134 27.6452ZM14.239 44.2855C17.1517 43.8475 19.5128 41.4058 19.5128 38.8316C19.5128 36.2574 17.1517 34.3168 14.239 34.4971C11.3265 34.6774 8.96534 37.1192 8.96534 39.951C8.96534 42.7828 11.3265 44.7234 14.239 44.2855Z" fill="white"/>
</g>
<defs>
<clipPath id="clip0">
<rect width="198" height="56" fill="white"/>
</clipPath>
</defs>
</svg>
