<svg width="42" height="57" viewBox="0 0 42 57" fill="none" xmlns="http://www.w3.org/2000/svg">
<g clip-path="url(#clip0)">
<path fill-rule="evenodd" clip-rule="evenodd" d="M0 4.52178C0 1.41793 2.3587 -0.546164 5.26869 0.134932L36.9211 7.54331C39.8309 8.22437 42.1898 10.4404 42.1898 12.4984V43.7793C42.1898 45.8348 39.8311 48.0533 36.9211 48.7344L5.26869 56.1427C2.35887 56.8239 0 54.8634 0 51.7559V4.52178ZM8.96534 15.9974C8.96534 13.4912 11.0201 11.7556 13.5498 12.1199L27.3076 14.1015C29.8396 14.4661 31.8921 16.3771 31.8921 18.3709C31.8921 20.364 29.8373 21.8504 27.3076 21.6909L13.5498 20.824C11.0179 20.6644 8.96534 18.504 8.96534 15.9974ZM8.72134 28.1388C8.72134 25.5448 10.8483 23.5279 13.4667 23.634L27.7076 24.2109C30.3285 24.3171 32.4531 26.0752 32.4531 28.1388C32.4531 30.202 30.3262 31.9607 27.7076 32.0668L13.4667 32.6437C10.8459 32.7499 8.72134 30.7336 8.72134 28.1388ZM14.239 45.0763C17.1517 44.6305 19.5128 42.1452 19.5128 39.5251C19.5128 36.9049 17.1517 34.9296 14.239 35.1131C11.3265 35.2967 8.96534 37.782 8.96534 40.6644C8.96534 43.5467 11.3265 45.522 14.239 45.0763Z" fill="url(#paint0_linear)"/>
</g>
<defs>
<linearGradient id="paint0_linear" x1="-37.2637" y1="-31.1537" x2="-38.6167" y2="126.562" gradientUnits="userSpaceOnUse">
<stop stop-color="#1400FF"/>
<stop offset="1" stop-color="#FC199B"/>
</linearGradient>
<clipPath id="clip0">
<rect width="42" height="57" fill="white"/>
</clipPath>
</defs>
</svg>
